<?xml version="1.0" standalone="no"?><svg xmlns:xlink="http://www.w3.org/1999/xlink" xmlns="http://www.w3.org/2000/svg" viewBox="0 0 1000 625.004963508287" preserveAspectRatio="xMaxYMax slice"><g transform="scale(0.7941613259317497)"><rect x="0" y="0" width="1259.2" height="787" fill="#ffffff"/><rect x="0" y="0" width="157.4" height="157.4" fill="#77d1f5"/><polygon points="157.4,0 157.4,157.4 0,157.4" fill="#77d1f5"/><rect x="157.4" y="0" width="157.4" height="157.4" fill="#77d1f5"/><polygon points="157.4,0 314.8,157.4 157.4,157.4" fill="#4499ee"/><rect x="314.8" y="0" width="157.4" height="157.4" fill="#4499ee"/><rect x="314.8" y="0" width="157.4" height="157.4" fill="#77d1f5"/><rect x="472.2" y="0" width="157.4" height="157.4" fill="#77d1f5"/><path d="M 472.2 0 A 157.4 157.4 0 0 1 629.6 157.4 L 472.2 157.4" fill="#4499ee"/><rect x="629.6" y="0" width="157.4" height="157.4" fill="#77d1f5"/><polygon points="629.6,0 787,157.4 629.6,157.4" fill="#4499ee"/><rect x="787" y="0" width="157.4" height="157.4" fill="#4499ee"/><path d="M 787 157.4 A 157.4 157.4 0 0 1  944.4 0 L 787 157.4 A 157.4 157.4 0 0 0 944.4 0" fill="#4499ee"/><rect x="944.4" y="0" width="157.4" height="157.4" fill="#77d1f5"/><path d="M 944.4 0 A 157.4 157.4 0 0 0 1101.8 157.4 L 1101.8 0" fill="#4499ee"/><rect x="1101.8" y="0" width="157.4" height="157.4" fill="#77d1f5"/><path d="M 1101.8 0 A 157.4 157.4 0 0 0 1259.2 157.4 L 1259.2 0" fill="#77d1f5"/><rect x="0" y="157.4" width="157.4" height="157.4" fill="#77d1f5"/><path d="M 0 314.8 A 157.4 157.4 0 0 1  157.4 157.4 L 0 314.8 A 157.4 157.4 0 0 0 157.4 157.4" fill="#4499ee"/><rect x="157.4" y="157.4" width="157.4" height="157.4" fill="#4499ee"/><polygon points="157.4,157.4 314.8,314.8 157.4,314.8" fill="#4499ee"/><rect x="314.8" y="157.4" width="157.4" height="157.4" fill="#4499ee"/><path d="M 314.8 157.4 A 157.4 157.4 0 0 1 472.20000000000005 314.8 L 314.8 314.8" fill="#77d1f5"/><rect x="472.2" y="157.4" width="157.4" height="157.4" fill="#77d1f5"/><polygon points="629.6,157.4 629.6,314.8 472.2,314.8" fill="#4499ee"/><rect x="629.6" y="157.4" width="157.4" height="157.4" fill="#4499ee"/><rect x="629.6" y="157.4" width="157.4" height="157.4" fill="#77d1f5"/><rect x="787" y="157.4" width="157.4" height="157.4" fill="#4499ee"/><polygon points="787,157.4 944.4,157.4 787,314.8" fill="#4499ee"/><rect x="944.4" y="157.4" width="157.4" height="157.4" fill="#4499ee"/><rect x="944.4" y="157.4" width="157.4" height="157.4" fill="#77d1f5"/><rect x="1101.8" y="157.4" width="157.4" height="157.4" fill="#4499ee"/><rect x="1101.8" y="157.4" width="157.4" height="157.4" fill="#4499ee"/><rect x="0" y="314.8" width="157.4" height="157.4" fill="#77d1f5"/><rect x="0" y="314.8" width="157.4" height="157.4" fill="#77d1f5"/><rect x="157.4" y="314.8" width="157.4" height="157.4" fill="#77d1f5"/><path d="M 157.4 314.8 A 157.4 157.4 0 0 0 314.8 472.20000000000005 L 314.8 314.8" fill="#77d1f5"/><rect x="314.8" y="314.8" width="157.4" height="157.4" fill="#77d1f5"/><path d="M 314.8 472.20000000000005 A 157.4 157.4 0 0 0 472.20000000000005 314.8 L 314.8 314.8" fill="#77d1f5"/><rect x="472.2" y="314.8" width="157.4" height="157.4" fill="#4499ee"/><path d="M 472.2 314.8 A 157.4 157.4 0 0 1  629.6 472.20000000000005 L 472.2 314.8 A 157.4 157.4 0 0 0 629.6 472.20000000000005" fill="#77d1f5"/><rect x="629.6" y="314.8" width="157.4" height="157.4" fill="#4499ee"/><path d="M 629.6 472.20000000000005 A 157.4 157.4 0 0 0 787 314.8 L 629.6 314.8" fill="#77d1f5"/><rect x="787" y="314.8" width="157.4" height="157.4" fill="#4499ee"/><path d="M 787 472.20000000000005 A 157.4 157.4 0 0 1  944.4 314.8 L 787 472.20000000000005 A 157.4 157.4 0 0 0 944.4 314.8" fill="#77d1f5"/><rect x="944.4" y="314.8" width="157.4" height="157.4" fill="#4499ee"/><polygon points="944.4,314.8 1101.8,314.8 1101.8,472.20000000000005" fill="#77d1f5"/><rect x="1101.8" y="314.8" width="157.4" height="157.4" fill="#4499ee"/><polygon points="1259.2,314.8 1259.2,472.20000000000005 1101.8,472.20000000000005" fill="#77d1f5"/><rect x="0" y="472.2" width="157.4" height="157.4" fill="#4499ee"/><polygon points="0,472.2 157.4,472.2 0,629.6" fill="#4499ee"/><rect x="157.4" y="472.2" width="157.4" height="157.4" fill="#77d1f5"/><polygon points="157.4,472.2 314.8,472.2 314.8,629.6" fill="#77d1f5"/><rect x="314.8" y="472.2" width="157.4" height="157.4" fill="#4499ee"/><path d="M 314.8 472.2 A 157.4 157.4 0 0 0 472.20000000000005 629.6 L 472.20000000000005 472.2" fill="#4499ee"/><rect x="472.2" y="472.2" width="157.4" height="157.4" fill="#77d1f5"/><rect x="472.2" y="472.2" width="157.4" height="157.4" fill="#4499ee"/><rect x="629.6" y="472.2" width="157.4" height="157.4" fill="#77d1f5"/><rect x="629.6" y="472.2" width="157.4" height="157.4" fill="#77d1f5"/><rect x="787" y="472.2" width="157.4" height="157.4" fill="#77d1f5"/><polygon points="787,472.2 944.4,629.6 787,629.6" fill="#77d1f5"/><rect x="944.4" y="472.2" width="157.4" height="157.4" fill="#77d1f5"/><rect x="944.4" y="472.2" width="157.4" height="157.4" fill="#77d1f5"/><rect x="1101.8" y="472.2" width="157.4" height="157.4" fill="#77d1f5"/><polygon points="1101.8,472.2 1259.2,629.6 1101.8,629.6" fill="#4499ee"/><rect x="0" y="629.6" width="157.4" height="157.4" fill="#77d1f5"/><rect x="0" y="629.6" width="157.4" height="157.4" fill="#77d1f5"/><rect x="157.4" y="629.6" width="157.4" height="157.4" fill="#77d1f5"/><path d="M 157.4 787 A 157.4 157.4 0 0 1  314.8 629.6 L 157.4 787 A 157.4 157.4 0 0 0 314.8 629.6" fill="#4499ee"/><rect x="314.8" y="629.6" width="157.4" height="157.4" fill="#77d1f5"/><rect x="314.8" y="629.6" width="157.4" height="157.4" fill="#4499ee"/><rect x="472.2" y="629.6" width="157.4" height="157.4" fill="#77d1f5"/><rect x="472.2" y="629.6" width="157.4" height="157.4" fill="#4499ee"/><rect x="629.6" y="629.6" width="157.4" height="157.4" fill="#77d1f5"/><path d="M 629.6 629.6 A 157.4 157.4 0 0 1 787 787 L 629.6 787" fill="#77d1f5"/><rect x="787" y="629.6" width="157.4" height="157.4" fill="#4499ee"/><path d="M 787 629.6 A 157.4 157.4 0 0 1  944.4 787 L 787 629.6 A 157.4 157.4 0 0 0 944.4 787" fill="#4499ee"/><rect x="944.4" y="629.6" width="157.4" height="157.4" fill="#77d1f5"/><rect x="944.4" y="629.6" width="157.4" height="157.4" fill="#77d1f5"/><rect x="1101.8" y="629.6" width="157.4" height="157.4" fill="#77d1f5"/><path d="M 1101.8 629.6 A 157.4 157.4 0 0 0 1259.2 787 L 1259.2 629.6" fill="#77d1f5"/></g></svg>