<?xml version="1.0" standalone="no"?><svg xmlns:xlink="http://www.w3.org/1999/xlink" xmlns="http://www.w3.org/2000/svg" viewBox="0 0 1000 625" preserveAspectRatio="xMaxYMax slice"><g transform="scale(0.8561643835616438)"><rect x="0" y="0" width="1168" height="730" fill="#ffffff"/><rect x="0" y="0" width="146" height="146" fill="#4499ee"/><polygon points="0,0 146,146 0,146" fill="#77d1f5"/><rect x="146" y="0" width="146" height="146" fill="#4499ee"/><polygon points="146,0 292,0 146,146" fill="#77d1f5"/><rect x="292" y="0" width="146" height="146" fill="#4499ee"/><rect x="292" y="0" width="146" height="146" fill="#4499ee"/><rect x="438" y="0" width="146" height="146" fill="#4499ee"/><rect x="438" y="0" width="146" height="146" fill="#77d1f5"/><rect x="584" y="0" width="146" height="146" fill="#4499ee"/><rect x="584" y="0" width="146" height="146" fill="#77d1f5"/><rect x="730" y="0" width="146" height="146" fill="#77d1f5"/><rect x="730" y="0" width="146" height="146" fill="#77d1f5"/><rect x="876" y="0" width="146" height="146" fill="#77d1f5"/><polygon points="876,0 1022,146 876,146" fill="#77d1f5"/><rect x="1022" y="0" width="146" height="146" fill="#77d1f5"/><polygon points="1022,0 1168,146 1022,146" fill="#4499ee"/><rect x="0" y="146" width="146" height="146" fill="#77d1f5"/><path d="M 0 292 A 146 146 0 0 1  146 146 L 146 292" fill="#77d1f5"/><rect x="146" y="146" width="146" height="146" fill="#4499ee"/><rect x="146" y="146" width="146" height="146" fill="#4499ee"/><rect x="292" y="146" width="146" height="146" fill="#4499ee"/><polygon points="292,146 438,146 438,292" fill="#77d1f5"/><rect x="438" y="146" width="146" height="146" fill="#77d1f5"/><rect x="438" y="146" width="146" height="146" fill="#77d1f5"/><rect x="584" y="146" width="146" height="146" fill="#77d1f5"/><polygon points="584,146 730,146 584,292" fill="#4499ee"/><rect x="730" y="146" width="146" height="146" fill="#77d1f5"/><rect x="730" y="146" width="146" height="146" fill="#4499ee"/><rect x="876" y="146" width="146" height="146" fill="#4499ee"/><polygon points="876,146 1022,292 876,292" fill="#77d1f5"/><rect x="1022" y="146" width="146" height="146" fill="#77d1f5"/><polygon points="1022,146 1168,292 1022,292" fill="#4499ee"/><rect x="0" y="292" width="146" height="146" fill="#77d1f5"/><rect x="0" y="292" width="146" height="146" fill="#4499ee"/><rect x="146" y="292" width="146" height="146" fill="#4499ee"/><rect x="146" y="292" width="146" height="146" fill="#4499ee"/><rect x="292" y="292" width="146" height="146" fill="#77d1f5"/><polygon points="438,292 438,438 292,438" fill="#4499ee"/><rect x="438" y="292" width="146" height="146" fill="#4499ee"/><path d="M 438 438 A 146 146 0 0 1  584 292 L 584 438" fill="#77d1f5"/><rect x="584" y="292" width="146" height="146" fill="#77d1f5"/>
<polygon points="584,292 730,292 730,438" fill="#4499ee"/><rect x="730" y="292" width="146" height="146" fill="#77d1f5"/>
<polygon points="730,292 876,438 730,438" fill="#77d1f5"/><rect x="876" y="292" width="146" height="146" fill="#77d1f5"/>
<polygon points="1022,292 1022,438 876,438" fill="#77d1f5"/><rect x="1022" y="292" width="146" height="146" fill="#77d1f5"/>
<path d="M 1022 438 A 146 146 0 0 1  1168 292 L 1022 438 A 146 146 0 0 0 1168 292" fill="#77d1f5"/><rect x="0" y="438" width="146" height="146" fill="#4499ee"/>
<polygon points="146,438 146,584 0,584" fill="#77d1f5"/><rect x="146" y="438" width="146" height="146" fill="#4499ee"/>
<polygon points="146,438 292,438 292,584" fill="#4499ee"/><rect x="292" y="438" width="146" height="146" fill="#77d1f5"/>
<path d="M 292 438 A 146 146 0 0 1  438 584 L 292 438 A 146 146 0 0 0 438 584" fill="#77d1f5"/><rect x="438" y="438" width="146" height="146" fill="#4499ee"/>
<path d="M 438 584 A 146 146 0 0 1  584 438 L 584 584" fill="#4499ee"/><rect x="584" y="438" width="146" height="146" fill="#77d1f5"/>
<rect x="584" y="438" width="146" height="146" fill="#4499ee"/><rect x="730" y="438" width="146" height="146" fill="#4499ee"/>
<path d="M 730 438 A 146 146 0 0 1 876 584 L 730 584" fill="#77d1f5"/><rect x="876" y="438" width="146" height="146" fill="#77d1f5"/>
<path d="M 876 438 A 146 146 0 0 1  1022 584 L 876 438 A 146 146 0 0 0 1022 584" fill="#4499ee"/><rect x="1022" y="438" width="146" height="146" fill="#4499ee"/>
<rect x="1022" y="438" width="146" height="146" fill="#77d1f5"/><rect x="0" y="584" width="146" height="146" fill="#77d1f5"/>
<polygon points="0,584 146,730 0,730" fill="#4499ee"/><rect x="146" y="584" width="146" height="146" fill="#4499ee"/>
<rect x="146" y="584" width="146" height="146" fill="#4499ee"/><rect x="292" y="584" width="146" height="146" fill="#4499ee"/>
<path d="M 292 730 A 146 146 0 0 1  438 584 L 292 730 A 146 146 0 0 0 438 584" fill="#77d1f5"/>
<rect x="438" y="584" width="146" height="146" fill="#77d1f5"/><rect x="438" y="584" width="146" height="146" fill="#4499ee"/>
<rect x="584" y="584" width="146" height="146" fill="#77d1f5"/><rect x="584" y="584" width="146" height="146" fill="#4499ee"/>
<rect x="730" y="584" width="146" height="146" fill="#4499ee"/><path d="M 730 730 A 146 146 0 0 1  876 584 L 730 730 A 146 146 0 0 0 876 584" fill="#4499ee"/>
<rect x="876" y="584" width="146" height="146" fill="#4499ee"/><rect x="876" y="584" width="146" height="146" fill="#77d1f5"/><rect x="1022" y="584" width="146" height="146" fill="#77d1f5"/><polygon points="1022,584 1168,584 1168,730" fill="#4499ee"/></g></svg>