<svg id="visual" viewBox="0 0 2000 1200" width="2000" height="1200" xmlns="http://www.w3.org/2000/svg" xmlns:xlink="http://www.w3.org/1999/xlink" version="1.1"><path d="M0 529L30.3 527C60.7 525 121.3 521 182 487C242.7 453 303.3 389 363.8 365C424.3 341 484.7 357 545.2 343C605.7 329 666.3 285 727 285C787.7 285 848.3 329 909 341C969.7 353 1030.3 333 1091 327C1151.7 321 1212.3 329 1273 313C1333.7 297 1394.3 257 1454.8 273C1515.3 289 1575.7 361 1636.2 373C1696.7 385 1757.3 337 1818 351C1878.7 365 1939.3 441 1969.7 479L2000 517L2000 0L1969.7 0C1939.3 0 1878.7 0 1818 0C1757.3 0 1696.7 0 1636.2 0C1575.7 0 1515.3 0 1454.8 0C1394.3 0 1333.7 0 1273 0C1212.3 0 1151.7 0 1091 0C1030.3 0 969.7 0 909 0C848.3 0 787.7 0 727 0C666.3 0 605.7 0 545.2 0C484.7 0 424.3 0 363.8 0C303.3 0 242.7 0 182 0C121.3 0 60.7 0 30.3 0L0 0Z" fill="#e7f6f2"></path><path d="M0 601L30.3 605C60.7 609 121.3 617 182 597C242.7 577 303.3 529 363.8 517C424.3 505 484.7 529 545.2 523C605.7 517 666.3 481 727 475C787.7 469 848.3 493 909 485C969.7 477 1030.3 437 1091 431C1151.7 425 1212.3 453 1273 455C1333.7 457 1394.3 433 1454.8 455C1515.3 477 1575.7 545 1636.2 555C1696.7 565 1757.3 517 1818 531C1878.7 545 1939.3 621 1969.7 659L2000 697L2000 515L1969.7 477C1939.3 439 1878.7 363 1818 349C1757.3 335 1696.7 383 1636.2 371C1575.7 359 1515.3 287 1454.8 271C1394.3 255 1333.7 295 1273 311C1212.3 327 1151.7 319 1091 325C1030.3 331 969.7 351 909 339C848.3 327 787.7 283 727 283C666.3 283 605.7 327 545.2 341C484.7 355 424.3 339 363.8 363C303.3 387 242.7 451 182 485C121.3 519 60.7 523 30.3 525L0 527Z" fill="#bbe8e7"></path><path d="M0 793L30.3 783C60.7 773 121.3 753 182 735C242.7 717 303.3 701 363.8 691C424.3 681 484.7 677 545.2 661C605.7 645 666.3 617 727 613C787.7 609 848.3 629 909 621C969.7 613 1030.3 577 1091 583C1151.7 589 1212.3 637 1273 645C1333.7 653 1394.3 621 1454.8 641C1515.3 661 1575.7 733 1636.2 743C1696.7 753 1757.3 701 1818 701C1878.7 701 1939.3 753 1969.7 779L2000 805L2000 695L1969.7 657C1939.3 619 1878.7 543 1818 529C1757.3 515 1696.7 563 1636.2 553C1575.7 543 1515.3 475 1454.8 453C1394.3 431 1333.7 455 1273 453C1212.3 451 1151.7 423 1091 429C1030.3 435 969.7 475 909 483C848.3 491 787.7 467 727 473C666.3 479 605.7 515 545.2 521C484.7 527 424.3 503 363.8 515C303.3 527 242.7 575 182 595C121.3 615 60.7 607 30.3 603L0 599Z" fill="#8ad9e7"></path><path d="M0 1009L30.3 999C60.7 989 121.3 969 182 943C242.7 917 303.3 885 363.8 859C424.3 833 484.7 813 545.2 805C605.7 797 666.3 801 727 811C787.7 821 848.3 837 909 833C969.7 829 1030.3 805 1091 793C1151.7 781 1212.3 781 1273 775C1333.7 769 1394.3 757 1454.8 787C1515.3 817 1575.7 889 1636.2 923C1696.7 957 1757.3 953 1818 957C1878.7 961 1939.3 973 1969.7 979L2000 985L2000 803L1969.7 777C1939.3 751 1878.7 699 1818 699C1757.3 699 1696.7 751 1636.2 741C1575.7 731 1515.3 659 1454.8 639C1394.3 619 1333.7 651 1273 643C1212.3 635 1151.7 587 1091 581C1030.3 575 969.7 611 909 619C848.3 627 787.7 607 727 611C666.3 615 605.7 643 545.2 659C484.7 675 424.3 679 363.8 689C303.3 699 242.7 715 182 733C121.3 751 60.7 771 30.3 781L0 791Z" fill="#55c8ed"></path><path d="M0 1201L30.3 1201C60.7 1201 121.3 1201 182 1201C242.7 1201 303.3 1201 363.8 1201C424.3 1201 484.7 1201 545.2 1201C605.7 1201 666.3 1201 727 1201C787.7 1201 848.3 1201 909 1201C969.7 1201 1030.3 1201 1091 1201C1151.7 1201 1212.3 1201 1273 1201C1333.7 1201 1394.3 1201 1454.8 1201C1515.3 1201 1575.7 1201 1636.2 1201C1696.7 1201 1757.3 1201 1818 1201C1878.7 1201 1939.3 1201 1969.7 1201L2000 1201L2000 983L1969.7 977C1939.3 971 1878.7 959 1818 955C1757.3 951 1696.7 955 1636.2 921C1575.7 887 1515.3 815 1454.8 785C1394.3 755 1333.7 767 1273 773C1212.3 779 1151.7 779 1091 791C1030.3 803 969.7 827 909 831C848.3 835 787.7 819 727 809C666.3 799 605.7 795 545.2 803C484.7 811 424.3 831 363.8 857C303.3 883 242.7 915 182 941C121.3 967 60.7 987 30.3 997L0 1007Z" fill="#10b4f5"></path></svg>