<svg id="visual" viewBox="0 0 2000 1200" width="2000" height="1200" xmlns="http://www.w3.org/2000/svg" xmlns:xlink="http://www.w3.org/1999/xlink" version="1.1"><rect x="0" y="0" width="2000" height="1200" fill="#f8f8f8"></rect><path d="M0 837L47.7 828.2C95.3 819.3 190.7 801.7 285.8 782.5C381 763.3 476 742.7 571.2 753.8C666.3 765 761.7 808 857 835.2C952.3 862.3 1047.7 873.7 1143 866.3C1238.3 859 1333.7 833 1428.8 813.7C1524 794.3 1619 781.7 1714.2 774C1809.3 766.3 1904.7 763.7 1952.3 762.3L2000 761L2000 1201L1952.3 1201C1904.7 1201 1809.3 1201 1714.2 1201C1619 1201 1524 1201 1428.8 1201C1333.7 1201 1238.3 1201 1143 1201C1047.7 1201 952.3 1201 857 1201C761.7 1201 666.3 1201 571.2 1201C476 1201 381 1201 285.8 1201C190.7 1201 95.3 1201 47.7 1201L0 1201Z" fill="#98d9f3"></path><path d="M0 886L47.7 887.8C95.3 889.7 190.7 893.3 285.8 895.7C381 898 476 899 571.2 898.3C666.3 897.7 761.7 895.3 857 895.7C952.3 896 1047.7 899 1143 884.5C1238.3 870 1333.7 838 1428.8 842.5C1524 847 1619 888 1714.2 896.7C1809.3 905.3 1904.7 881.7 1952.3 869.8L2000 858L2000 1201L1952.3 1201C1904.7 1201 1809.3 1201 1714.2 1201C1619 1201 1524 1201 1428.8 1201C1333.7 1201 1238.3 1201 1143 1201C1047.7 1201 952.3 1201 857 1201C761.7 1201 666.3 1201 571.2 1201C476 1201 381 1201 285.8 1201C190.7 1201 95.3 1201 47.7 1201L0 1201Z" fill="#80d0f3"></path><path d="M0 955L47.7 949.5C95.3 944 190.7 933 285.8 925.2C381 917.3 476 912.7 571.2 915.7C666.3 918.7 761.7 929.3 857 936.2C952.3 943 1047.7 946 1143 946C1238.3 946 1333.7 943 1428.8 944C1524 945 1619 950 1714.2 957.2C1809.3 964.3 1904.7 973.7 1952.3 978.3L2000 983L2000 1201L1952.3 1201C1904.7 1201 1809.3 1201 1714.2 1201C1619 1201 1524 1201 1428.8 1201C1333.7 1201 1238.3 1201 1143 1201C1047.7 1201 952.3 1201 857 1201C761.7 1201 666.3 1201 571.2 1201C476 1201 381 1201 285.8 1201C190.7 1201 95.3 1201 47.7 1201L0 1201Z" fill="#66c7f3"></path><path d="M0 1068L47.7 1051.2C95.3 1034.3 190.7 1000.7 285.8 1002.2C381 1003.7 476 1040.3 571.2 1058.3C666.3 1076.3 761.7 1075.7 857 1066.5C952.3 1057.3 1047.7 1039.7 1143 1022.7C1238.3 1005.7 1333.7 989.3 1428.8 986.2C1524 983 1619 993 1714.2 1010C1809.3 1027 1904.7 1051 1952.3 1063L2000 1075L2000 1201L1952.3 1201C1904.7 1201 1809.3 1201 1714.2 1201C1619 1201 1524 1201 1428.8 1201C1333.7 1201 1238.3 1201 1143 1201C1047.7 1201 952.3 1201 857 1201C761.7 1201 666.3 1201 571.2 1201C476 1201 381 1201 285.8 1201C190.7 1201 95.3 1201 47.7 1201L0 1201Z" fill="#47bef4"></path><path d="M0 1102L47.7 1107C95.3 1112 190.7 1122 285.8 1125.8C381 1129.7 476 1127.3 571.2 1127.7C666.3 1128 761.7 1131 857 1131.2C952.3 1131.3 1047.7 1128.7 1143 1124.2C1238.3 1119.7 1333.7 1113.3 1428.8 1111.8C1524 1110.3 1619 1113.7 1714.2 1112C1809.3 1110.3 1904.7 1103.7 1952.3 1100.3L2000 1097L2000 1201L1952.3 1201C1904.7 1201 1809.3 1201 1714.2 1201C1619 1201 1524 1201 1428.8 1201C1333.7 1201 1238.3 1201 1143 1201C1047.7 1201 952.3 1201 857 1201C761.7 1201 666.3 1201 571.2 1201C476 1201 381 1201 285.8 1201C190.7 1201 95.3 1201 47.7 1201L0 1201Z" fill="#10b4f5"></path></svg>