<svg xmlns="http://www.w3.org/2000/svg" viewBox="0 0 1440 320"><path fill="#98d9f3" fill-opacity="0.9" d="M0,256L24,240C48,224,96,192,144,197.3C192,203,240,245,288,250.7C336,256,384,224,432,218.7C480,213,528,235,576,218.7C624,203,672,149,720,144C768,139,816,181,864,170.7C912,160,960,96,1008,106.7C1056,117,1104,203,1152,213.3C1200,224,1248,160,1296,149.3C1344,139,1392,181,1416,202.7L1440,224L1440,320L1416,320C1392,320,1344,320,1296,320C1248,320,1200,320,1152,320C1104,320,1056,320,1008,320C960,320,912,320,864,320C816,320,768,320,720,320C672,320,624,320,576,320C528,320,480,320,432,320C384,320,336,320,288,320C240,320,192,320,144,320C96,320,48,320,24,320L0,320Z"></path></svg>