<svg xmlns="http://www.w3.org/2000/svg" viewBox="0 0 1440 320">
  <path fill="#98d9f3" fill-opacity="0.9" d="M0,256L24,240C48,224,96,192,144,192C192,192,240,224,288,245.3C336,267,384,277,432,261.3C480,245,528,203,576,202.7C624,203,672,245,720,266.7C768,288,816,288,864,288C912,288,960,288,1008,261.3C1056,235,1104,181,1152,144C1200,107,1248,85,1296,80C1344,75,1392,85,1416,90.7L1440,96L1440,320L1416,320C1392,320,1344,320,1296,320C1248,320,1200,320,1152,320C1104,320,1056,320,1008,320C960,320,912,320,864,320C816,320,768,320,720,320C672,320,624,320,576,320C528,320,480,320,432,320C384,320,336,320,288,320C240,320,192,320,144,320C96,320,48,320,24,320L0,320Z"></path>
</svg>